<?xml version="1.0" encoding="utf-8"?>
<svg width="400" height="300" viewBox="-0.1 0.3 352.323 372.5" xmlns="http://www.w3.org/2000/svg">
  <linearGradient id="c" gradientUnits="userSpaceOnUse" x1="-82.561" y1="353.647" x2="-82.561" y2="516.124" gradientTransform="rotate(14.693 900.084 675.154)">
    <stop offset="0.056" stop-color="#dc7327"/>
    <stop offset="1" stop-color="#eebc89"/>
  </linearGradient>
  <path d="M3 203.5c.199-2.799 7-59.399 33.199-78.5 22.601-16.5 5-10.5-3.699-9.8-9.2.7-14.101 6.3-12.301 4.3.101-.1.101-.1.101-.2-.3-.4-21.601 17.5-17.3 84.2z" fill="url(#c)"/>
  <linearGradient id="d" gradientUnits="userSpaceOnUse" x1="-1011.462" y1="1503.002" x2="-1066.398" y2="1592.468" gradientTransform="matrix(.9897 -.0801 .0949 1.1727 895.375 -1738.839)">
    <stop offset="0.056" stop-color="#dc7327"/>
    <stop offset="1" stop-color="#edbd6b"/>
  </linearGradient>
  <path d="M0 159.3s15.399-49 46.6-48.5c20.7.3 4.3-17.5-2-20.2-6.5-2.8-8.1-2.7-9.6-1.3-2.301 2-22.801 1.2-35 70z" fill="url(#d)"/>
  <radialGradient id="g" cx="-761.916" cy="1746.896" r="29.702" gradientTransform="translate(1023.395 -1428.383)" gradientUnits="userSpaceOnUse">
    <stop offset="0" stop-color="#431413"/>
    <stop offset="0.164" stop-color="#631e1c"/>
    <stop offset="0.332" stop-color="#832320"/>
    <stop offset="0.484" stop-color="#9c2222"/>
    <stop offset="0.615" stop-color="#ac2023"/>
    <stop offset="0.708" stop-color="#b21f24"/>
    <stop offset="0.999" stop-color="#aa1f24"/>
    <stop offset="1" stop-color="#a91f24"/>
  </radialGradient>
  <path d="M212.199 329.099C265.5 340.4 305.8 295.4 277 284.6c-26.1-9.8-90.1 39.101-64.801 44.499z" fill="url(#g)"/>
  <radialGradient id="h" cx="-704.401" cy="1690.172" r="32.879" gradientTransform="translate(1023.395 -1428.383)" gradientUnits="userSpaceOnUse">
    <stop offset="0.126" stop-color="#941f21"/>
    <stop offset="0.343" stop-color="#9e2922"/>
    <stop offset="0.73" stop-color="#c24028"/>
    <stop offset="1" stop-color="#dc5726"/>
  </radialGradient>
  <path d="M281.699 286c53.2-11.6 71.4-69.199 40.801-67.199-27.801 1.799-66 72.699-40.801 67.199z" fill="url(#h)"/>
  <radialGradient id="i" cx="-688.325" cy="1593.597" r="29.707" gradientTransform="translate(1023.395 -1428.383)" gradientUnits="userSpaceOnUse">
    <stop offset="0.126" stop-color="#941f21"/>
    <stop offset="0.343" stop-color="#9e2922"/>
    <stop offset="0.73" stop-color="#c24028"/>
    <stop offset="1" stop-color="#dc5726"/>
  </radialGradient>
  <path d="M328.9 196.4c34.9-25.2 18.3-70 18.3-70s-7.699 23.1-14.699 50.3C325.6 203.8 308 211.5 328.9 196.4z" fill="url(#i)"/>
  <radialGradient id="j" cx="-697.141" cy="1522.957" r="37.115" gradientTransform="translate(1023.395 -1428.383)" gradientUnits="userSpaceOnUse">
    <stop offset="0" stop-color="#941f21"/>
    <stop offset="0.638" stop-color="#c13f28"/>
    <stop offset="1" stop-color="#dc5726"/>
  </radialGradient>
  <path d="M339.3 118.1c-3.7-43.2-30.5-65.6-30.5-65.6s2.7 14.7 6.3 34.8c4.8 27.5 26.4 56.5 24.2 30.8z" fill="url(#j)"/>
  <radialGradient id="k" cx="-842.342" cy="1462.015" r="328.826" gradientTransform="matrix(0.9408, 0, 0, 0.8863, 969.854471, -1274.379164)" gradientUnits="userSpaceOnUse">
    <stop offset="0" stop-color="#52c4f1"/>
    <stop offset="0.077" stop-color="#45bbec"/>
    <stop offset="0.182" stop-color="#00a9dc"/>
    <stop offset="0.376" stop-color="#2276b8"/>
    <stop offset="0.501" stop-color="#035495"/>
    <stop offset="0.75" stop-color="#1d204e"/>
  </radialGradient>
  <path d="M 177.379 337.707 C 270.579 337.707 346.079 262.107 346.079 168.907 C 346.079 75.707 270.579 0.107 177.379 0.107 C 84.179 0.107 8.679 75.707 8.679 168.907 C 8.679 262.108 84.179 337.707 177.379 337.707 Z" fill="url(#k)"/>
  <linearGradient id="n" gradientUnits="userSpaceOnUse" x1="-867.94" y1="1595.463" x2="-788.574" y2="1704.338" gradientTransform="translate(1023.395 -1428.383)">
    <stop offset="0" stop-color="#1d406f"/>
    <stop offset="1" stop-color="#141728"/>
  </linearGradient>
  <path d="M177.6 205.1c-1 1 .1 3.899 1.4 3.8 1.3-.1 3.199-.699 3.199-.699s1 1.899 0 2.5c-1 .5-3.8.299-.1 1.699 3.8 1.4 4.8 1 5 .301.3-.701 1.5-3.101 2.2-2.9.6-1.2-2-2.4-.601-3.2 1.4-.8.301-3.899.301-3.899s-2 .1-2.801 1.5c-.8 1.399-2-.101-2.8-.101-.1.8-.7 1.5-.7 1.5l-.6-1.3c.101-.1-3.798-.201-4.498.799z" fill="url(#n)"/>
  <defs>
    <path id="o" d="M175.5 337.9c93.1 0 168.6-75.5 168.6-168.7C344.1 76 268.6.5 175.5.5S6.9 76.1 6.9 169.2c0 93.2 75.5 168.7 168.6 168.7z"/>
  </defs>
  <defs>
    <path id="r" d="M175.5 337.9c93.1 0 168.6-75.5 168.6-168.7C344.1 76 268.6.5 175.5.5S6.9 76.1 6.9 169.2c0 93.2 75.5 168.7 168.6 168.7z"/>
  </defs>
  <clipPath id="s">
    <path d="M175.5 337.9c93.1 0 168.6-75.5 168.6-168.7C344.1 76 268.6.5 175.5.5S6.9 76.1 6.9 169.2c0 93.2 75.5 168.7 168.6 168.7z" transform="matrix(1, 0, 0, 1, 0, 0)" overflow="visible"/>
  </clipPath>
  <radialGradient id="t" cx="-830.748" cy="1490.888" r="191.42" gradientTransform="matrix(1 0 0 .9811 1023.395 -1405.724)" gradientUnits="userSpaceOnUse">
    <stop offset="0.134" stop-color="#00a3de"/>
    <stop offset="0.173" stop-color="#009ed9"/>
    <stop offset="0.233" stop-color="#0292ce"/>
    <stop offset="0.307" stop-color="#1d7ebe"/>
    <stop offset="0.334" stop-color="#2276b8"/>
    <stop offset="0.44" stop-color="#2468a5"/>
    <stop offset="0.655" stop-color="#1f4276"/>
    <stop offset="0.862" stop-color="#1d204e"/>
  </radialGradient>
  <path d="M302.699 277.3c9.7-18.2 22.801-28.801 29.9-41.4 9.4-16.699 27.2-63.8 13.8-101.7 6.2 23.8 4.2 47.9-15.399 60 6.3-16.701 10.3-53.5 3.8-86.601-4.3-21.5-17.7-40.8-26.5-46.8 8.1 6.1 14.6 27.8 14.399 37.7-16.899-28.5-44.5-55.7-86.1-67.2 32.4 21.4 44.5 39.5 52.1 55.6-8.699-8.8-23.5-18.1-33.5-18.9 15 11.2 40.101 44.3 37.5 94.4-3.899-8.1-10.899-20.7-15.899-25.2 5.399 49.3.7 59.9-2.601 72.9-.699-6-2.899-10.5-4.1-13.3 0 0-.6 15.4-10.6 37.3-7.601 16.601-15.4 21.7-18.9 21.2-3.1-.5-1-3.5-1.5-6.4 0 0-5.2 2.5-10.4 7.9-4.899 5.1-9.3 10.699-11.6 9.1 1.7-1.4 3-3.8 4.3-6.1-1.899 1.3-6.8 5-17.8 6.6-4.5.7-23.6 4.1-49-8.6 3.7-.4 9.2-1.7 13.5.8-4.2-4.601-14.4-3.7-21.7-6-6.399-2-14.7-11-19.5-15.5 19.5 4.8 40.3 1.3 52.3-6.899 12.101-8.301 19.301-14.4 25.7-12.9 6.4 1.4 10.7-5 5.7-10.801-5-5.699-17.1-13.5-33.6-9.299-14.2 3.5-26 15.899-47.9 2.899C110.4 189 110.5 180 110.5 174.3c0-3.9 2.399-9.3 6.899-11.8 2.4.9 3.9 1.7 3.9 1.7s-1.101-1.7-1.8-2.6c.199-.1.3-.1.5-.2 2 .7 6.399 2.3 8.699 3.5 3.101 1.5 4.101 3.1 4.101 3.1s.7-.4 0-2c-.3-.7-1.4-2.6-4.4-4.4h.2c1.6.6 3.3 1.4 5.1 2.5.601-2.7 1.7-5.5 1-10.4-.5-3.5-.5-4.3-1.3-5.6-.7-1.1.2-1.5 1.3-.6-.3-.8-.699-1.7-1.1-2.6 1-4.2 26.2-17.5 28.1-18.9 2.601-1.9 5.301-4.9 7-8.4 1.2-2.2 2.101-5.3 1.801-9.8-.2-3.3-2.101-5.2-29.101-5-7.399.1-12.2-4.2-15.1-8.3-.601-.9-1.101-1.7-1.601-2.5-.6-1.1-1.1-2.2-1.399-3 3.2-11.7 9.7-21.9 19.8-30.1.6-.5-2.4.3-1.8-.2.7-.6 4.899-2.7 5.7-3.1 1-.6-4.601-2.1-9.5-1.1-4.9 1-5.801 1.6-8.301 2.9 1-1.1 4.301-2.7 3.5-2.6-5.3 1.2-11.5 4.7-16.8 8.4 0-.5 0-.9.101-1.6-2.5 1.3-8.601 6-10.101 9.5 0-.8 0-1.2-.1-2-1.7 1.6-3.4 3.4-4.9 5.5l-.1.1c-15.8-3.9-29.2-3-40.4.6-2.7-1.9-7-4.9-13.7-15.4-.399-.6-.399 1.4-.8.8-2.7-4.8-4.899-12.9-5.2-18.8 0 0-4.3 2.5-7.199 11.5-.5 1.6-.9 2.5-1.2 3.4-.101.3.2-2.9.1-2.6-.5 1.1-2.1 2.9-2.6 4.9-.4 1.5-1 2.4-1.2 4.3 0 0 0 .1-.1.1 0-.5-.101-2.2-.2-1.9-1.3 3.3-2.4 7.1-3.4 11.4C23.5 79.8 22.1 89.1 23 100.8c0 1 .1 1.9.1 2.7-4.2 5.8-7 10.9-8.1 13.4C9.8 127 4.5 142.5.199 166.6c0 0 2.9-9.1 8.601-19.4-4.2 13-7.601 33.1-5.601 63.4.101-1 1-8.601 3.2-18.899C7.5 211.8 12.3 236.5 27.9 263.4c11.9 20.4 43.4 67.9 122.3 85.701-8.699-2.5-14-7.5-14-7.5s29.5 9.5 51 8.699c-6.699-1.199-8.1-4.4-8.1-4.4s76.5 4.301 103-31.799c-9.1 10.6-32 13.6-40.6 13.699 13.199-12.1 42.3-11.801 73.899-42.9 17.3-17 19.2-30 21.101-42.1-2.9 16.3-18 25.8-33.801 34.5z" opacity=".6" clip-path="url(#s)" fill="url(#t)"/>
  <radialGradient id="u" cx="-766.971" cy="1500.043" r="322.224" gradientTransform="matrix(1, 0, 0, 0.9811, 1023.98819, -1405.716975)" gradientUnits="userSpaceOnUse">
    <stop offset="0.119" stop-color="#fff"/>
    <stop offset="0.122" stop-color="#fffffa"/>
    <stop offset="0.25" stop-color="#ffe560"/>
    <stop offset="0.287" stop-color="#ffdf56"/>
    <stop offset="0.347" stop-color="#f8d03b"/>
    <stop offset="0.406" stop-color="#f0be1b"/>
    <stop offset="0.473" stop-color="#eb9d23"/>
    <stop offset="0.548" stop-color="#e57c27"/>
    <stop offset="0.765" stop-color="#dd5626"/>
    <stop offset="0.903" stop-color="#c33a28"/>
    <stop offset="1" stop-color="#b02228"/>
  </radialGradient>
  <path d="M 303.993 269.6 C 313.693 251.4 326.793 240.701 333.893 228.1 C 343.292 211.3 361.193 164.2 347.693 126.1 C 353.893 149.9 351.893 174.1 332.293 186.3 C 338.693 169.5 342.594 132.7 336.094 99.5 C 331.793 77.9 318.293 58.6 309.594 52.6 C 317.694 58.7 324.194 80.4 323.993 90.4 C 307.093 61.9 279.393 34.6 237.593 23.1 C 270.093 44.5 282.193 62.7 289.792 78.9 C 281.093 70 266.292 60.8 256.192 60 C 271.192 71.2 296.392 104.4 293.692 154.7 C 289.792 146.6 282.792 133.9 277.792 129.5 C 283.192 178.9 278.492 189.5 275.192 202.6 C 274.492 196.6 272.292 191.999 271.092 189.3 C 271.092 189.3 270.491 204.7 260.491 226.7 C 252.893 243.4 245.093 248.5 241.593 247.9 C 240.693 247.8 240.193 247.4 240.193 247.4 C 240.393 245.201 240.693 243 240.093 241.5 C 240.093 241.5 236.893 242.601 234.792 245.5 C 233.992 246.701 232.893 247.801 231.492 248.9 C 231.292 249.1 233.792 245.701 233.593 245.8 C 232.393 246.8 230.992 247.999 229.693 249.4 C 224.793 254.5 220.293 260.201 217.993 258.6 C 220.094 257.9 221.893 255.201 222.293 252.499 C 220.394 253.899 215.493 257.499 204.493 259.2 C 199.993 259.899 180.893 263.399 155.393 250.599 C 159.093 250.2 164.693 248.899 168.893 251.399 C 164.693 246.799 154.393 247.7 147.093 245.399 C 140.693 243.399 132.393 234.399 127.593 229.899 C 147.193 234.7 167.992 231.2 179.992 222.999 C 192.192 214.7 199.392 208.6 205.792 210.1 C 212.192 211.499 216.492 205.1 211.492 199.3 C 206.492 193.499 194.292 185.8 177.792 189.9 C 165.093 193.1 154.393 203.201 136.593 196.201 C 135.492 195.801 134.393 195.301 133.292 194.701 C 132.192 194.1 136.992 195.4 135.792 194.701 C 132.393 193.4 126.193 190.6 124.593 189.5 C 124.292 189.301 127.193 190 126.893 189.801 C 109.993 179.801 111.093 171.801 111.093 166.901 C 111.093 162.901 113.492 157.601 117.992 155.101 C 120.392 156.001 121.892 156.801 121.892 156.801 C 121.892 156.801 120.791 155.101 120.092 154.201 C 120.291 154.101 120.392 154.101 120.592 154.001 C 122.592 154.701 127.092 156.301 129.291 157.501 C 132.392 159.001 133.392 160.601 133.392 160.601 C 133.392 160.601 134.092 160.101 133.392 158.601 C 133.092 157.901 131.992 156.001 128.992 154.201 L 129.093 154.201 C 130.693 154.801 132.393 155.601 134.193 156.701 C 134.794 154.001 135.893 151.201 135.193 146.301 C 134.593 142.801 134.693 142.001 133.893 140.701 C 133.193 139.601 134.093 139.201 135.193 140.101 C 134.893 139.201 134.493 138.401 134.093 137.501 C 134.992 133.201 160.393 119.901 162.292 118.501 C 164.893 116.601 167.593 113.601 169.292 110.101 C 170.492 107.901 171.393 104.801 171.192 100.201 C 170.992 96.901 169.092 94.901 141.992 95.201 C 134.593 95.301 129.792 91.001 126.892 86.901 C 126.291 86.001 125.791 85.201 125.291 84.401 C 124.691 83.301 124.191 82.201 123.892 81.401 C 127.092 69.701 133.592 59.501 143.692 51.201 C 144.292 50.701 141.292 51.501 141.892 51.001 C 142.592 50.401 146.892 48.301 147.692 47.901 C 148.692 47.301 142.992 45.801 138.192 46.801 C 133.292 47.801 132.392 48.401 129.792 49.701 C 130.792 48.601 134.093 47.001 133.292 47.101 C 127.992 48.301 121.692 51.801 116.393 55.501 C 116.393 55.001 116.393 54.601 116.493 53.901 C 113.993 55.201 107.893 59.901 106.393 63.401 C 106.393 62.601 106.393 62.201 106.292 61.401 C 104.507 63.092 102.868 64.932 101.393 66.9 C 101.393 66.9 101.393 67 101.292 67 C 85.492 63.1 72.093 64 60.792 67.6 C 58.093 65.7 53.792 62.7 46.992 52.2 C 46.593 51.6 46.593 53.6 46.193 53 C 43.493 48.2 41.293 40 40.993 34.2 C 40.993 34.2 36.594 36.7 33.793 45.7 C 33.293 47.3 32.894 48.2 32.594 49.1 C 32.493 49.4 32.793 46.2 32.694 46.5 C 32.194 47.6 30.594 49.4 30.094 51.4 C 29.694 52.9 29.094 53.8 28.894 55.7 C 28.894 55.7 28.894 55.8 28.793 55.8 C 28.793 55.3 28.693 53.6 28.594 53.9 C 27.293 57.2 26.194 61 25.194 65.3 C 23.794 72.1 22.394 81.4 23.294 93.2 C 23.294 94.2 23.395 95.1 23.395 95.9 C 19.095 101.8 16.395 106.8 15.294 109.3 C 10.093 119.4 4.792 135 0.493 159.2 C 0.493 159.2 3.393 150.1 9.094 139.8 C 4.893 152.8 1.493 173 3.493 203.3 C 3.594 202.3 4.493 194.6 6.693 184.3 C 7.793 204.5 12.593 229.201 28.293 256.1 C 40.293 276.6 71.793 324.201 150.894 341.999 C 142.194 339.499 136.793 334.499 136.793 334.499 C 136.793 334.499 166.394 343.999 187.894 343.2 C 181.094 341.999 179.793 338.8 179.793 338.8 C 179.793 338.8 256.493 343.099 282.993 306.999 C 273.893 317.601 250.993 320.601 242.293 320.7 C 255.493 308.6 284.693 308.8 316.394 277.7 C 333.792 260.6 335.593 247.6 337.493 235.5 C 334.993 251.3 319.792 260.9 303.993 269.6 Z" fill="url(#u)"/>
  <radialGradient id="x" cx="-866.514" cy="1696.788" r="78.672" gradientTransform="matrix(1 0 0 .6267 1023.395 -969.954)" gradientUnits="userSpaceOnUse">
    <stop offset="0" stop-color="#e05a27" stop-opacity=".1"/>
    <stop offset="0.306" stop-color="#de5926" stop-opacity=".845"/>
    <stop offset="0.556" stop-color="#b02228"/>
  </radialGradient>
  <path d="M171 100.4c-.2-3.3-2.301-5.6-29.4-5.4-11.1.1-16.3-9.6-18.1-13.7-2.9 10.5-3.4 21.3-1.2 34 1.399 8.4 7.399 15.5 10.7 20.5.8.8 1.199 1 1.399.5 1.2-2.6 25-16.1 26.9-17.6 2.001-1.3 10.201-8.3 9.701-18.3z" fill="url(#x)"/>
  <radialGradient id="z" cx="-802.69" cy="1587.041" r="178.247" gradientTransform="translate(1023.395 -1428.383)" gradientUnits="userSpaceOnUse">
    <stop offset="0.463" stop-color="#f0b91c"/>
    <stop offset="0.722" stop-color="#e36024"/>
    <stop offset="0.782" stop-color="#db5825"/>
    <stop offset="0.876" stop-color="#c74127"/>
    <stop offset="0.97" stop-color="#b02228"/>
  </radialGradient>
  <path d="M262 303.099c-9.101 5-30.601 11.602-36.7 11.9 37.5-11.6 49.6-27.299 55.8-37.699 19.4-3.801 54.8-21.4 56.2-41.9-1.5 28-24.601 47.4-41.2 58.6-19.6 13.301-36.2 14.4-50.3 23.4 4.3-3 9.899-6.9 16.2-14.301z" fill="url(#z)"/>
  <linearGradient id="G" gradientUnits="userSpaceOnUse" x1="-896.689" y1="1558.043" x2="-869.86" y2="1546.237" gradientTransform="translate(1023.395 -1428.383)">
    <stop offset="0.075" stop-color="#dd5a26"/>
    <stop offset="0.298" stop-color="#e9986d"/>
    <stop offset="0.667" stop-color="#f4d4ac"/>
    <stop offset="1" stop-color="#f9f7c9"/>
  </linearGradient>
  <path d="M163.1 117.3c1.4-1.1 6.3-5.6 7.5-10.9-.9.4-1-.7-2-.2-1.8 1.9-6.2 6.5-11.4 9.8 1.4-1.3 3.9-3.2 4.5-4.2-5.6 3.9-12.5 6.6-17.899 6-.8 0 4 .5 8.2-2.8-4.101 1.9-11.101 1.7-11.801 1.5-.6-.2 6.9-1 6.2-1.2-3.5-1.2-8.1-.4-9.1.1-1.9.9-3.8 2.2-5.2 3.9.8-1 1.1-1.9 2-3.4-2.6 2.5-6.2 5.2-6.7 5.3.4-.8 6.3-5.3 5.2-4.9-.7.7-3.2 2.1-4.9 3.4-.5.3 3.5-3.3 3.101-3-6.7 1.7-6 5.4-6.2 5.5.1.2.1.7.3.9.8 2.4 3.7 6.5 6.4 10.4 2 2.4 2.6 5.1 2.7 4.2.899-4.4 27.198-18.9 29.099-20.4z" fill="url(#G)"/>
  <linearGradient id="H" gradientUnits="userSpaceOnUse" x1="-894.25" y1="1561.027" x2="-825.003" y2="1526.242" gradientTransform="translate(1023.395 -1428.383)">
    <stop offset="0.043" stop-color="#dd5a26"/>
    <stop offset="0.258" stop-color="#eca77c"/>
    <stop offset="1" stop-color="#f9f7c9"/>
  </linearGradient>
  <path d="M169.199 107.6c-.199 0-.399-3.2-.1-2.4.2.7-.3 7.2-6.2 11-1.3.8-.1-2.1-1.5-.6-2.3 2.5-8 10.8-22.3 10.8-.5 0 5.6-2.7 4.9-2.5-1.5.4-3.2.9-8.801 2.7-.5.2 4.7-3.2 4.2-3.1-.7.2-3.8 2.3-7.6 3.9 1.8-1.8 3.899-3.6 3.2-3.3-3 1.7-5.2 3.6-6.5 5.5.899 1.5 2 2.4 2.8 3.9 2 2.4 2.2 4.9 2.7 4.2 5.3-6.4 26.199-16.1 30.899-21.1 4.802-5.2 2.903-4.4 4.302-9z" fill="url(#H)"/>
  <radialGradient id="I" cx="-870.932" cy="1705.251" r="95.217" gradientTransform="matrix(1 0 0 .8428 1023.395 -1216.665)" gradientUnits="userSpaceOnUse">
    <stop offset="0.5" stop-color="#e05a27" stop-opacity="0"/>
    <stop offset="0.75" stop-color="#de5926" stop-opacity=".775"/>
    <stop offset="0.95" stop-color="#b02228"/>
  </radialGradient>
  <path d="M138.199 252.4c-26.899-8.4-57.6-20.8-60-56.1C75 150 117.6 155 117.6 155c-1.5.6-4.8 4-5.9 7.9-1.199 4.2-3.399 12.4 6.2 20.9 15.2 13.401-25 38.3 43.5 70.1 1.7.7-15.3 1-23.201-1.5z" fill="url(#I)"/>
  <linearGradient id="J" gradientUnits="userSpaceOnUse" x1="-868.208" y1="1545.513" x2="-848.031" y2="1514.453" gradientTransform="translate(1023.395 -1428.383)">
    <stop offset="0" stop-color="#37383a"/>
    <stop offset="0.651" stop-color="#7b3f3d"/>
    <stop offset="1" stop-color="#dd5a26"/>
  </linearGradient>
  <path d="M171.4 108.2c1.2-3 2.601-10-1.399-11.5-3.301-.8-6.2-1.4-11.601-1.3 1.8.4 7 1.5 8.3 3.9 2.601 4.6.5 13.6-.399 15.9 2.699-2.1 3.898-4.1 5.099-7z" fill="url(#J)"/>
  <radialGradient id="K" cx="-939.735" cy="1766.979" r="87.31" gradientTransform="matrix(.9863 -.1647 .1249 .7478 843.568 -1298.49)" gradientUnits="userSpaceOnUse">
    <stop offset="0.5" stop-color="#e05a27" stop-opacity="0"/>
    <stop offset="0.656" stop-color="#dd5a26"/>
    <stop offset="0.815" stop-color="#b02228"/>
  </radialGradient>
  <path d="M127.5 229.9c18.8 4.5 40 1.301 52.1-7 8.1-5.6 19.8-13.9 25.1-13-6-1.699-10.6-2.4-15.899-2.1-1 0-1.9.1-2.9.199-1.8.201-3.699.4-5.8.801-3.2.699-6.7 3.1-10 3.1-.2 0 3.101-1.699 2.8-1.699-1.699.5-3.6.799-5.6 1.299-1.2.301-2.4.5-3.601.701-37.699 7-72.199-13.5-72.199-13.5C89.6 208.201 106.4 224.9 127.5 229.9z" fill="url(#K)"/>
  <radialGradient id="L" cx="-785.57" cy="1459.35" r="164.471" gradientTransform="matrix(.9996 -.0268 .0263 .9807 991.64 -1424.899)" gradientUnits="userSpaceOnUse">
    <stop offset="0" stop-color="#ffe000" stop-opacity="0"/>
    <stop offset="0.355" stop-color="#fed700" stop-opacity=".515"/>
    <stop offset="0.483" stop-color="#fed208" stop-opacity=".7"/>
    <stop offset="0.857" stop-color="#fed208" stop-opacity="0"/>
  </radialGradient>
  <path d="M289.199 78.5s14.4 15.5 21.2 30.3c6.8 14.8 8.9 31.6 8.9 31.6s1-14.1-6.8-37.8c-8.4-25.7-25-47.7-41.4-59.8-11-8.3-33.1-19.3-33.1-19.3s38.101 22.6 51.2 55z" fill="url(#L)"/>
  <radialGradient id="N" cx="-2649.608" cy="3213.962" r="53.88" gradientTransform="matrix(-.2756 .9504 .6431 .1776 -2594.436 2149.379)" gradientUnits="userSpaceOnUse">
    <stop offset="0" stop-color="#fff"/>
    <stop offset="0.027" stop-color="#fffbe8" stop-opacity=".963"/>
    <stop offset="0.102" stop-color="#fff2b6" stop-opacity=".857"/>
    <stop offset="0.174" stop-color="#ffed8c" stop-opacity=".756"/>
    <stop offset="0.24" stop-color="#ffe967" stop-opacity=".662"/>
    <stop offset="0.3" stop-color="#ffe645" stop-opacity=".578"/>
    <stop offset="0.352" stop-color="#ffe42c" stop-opacity=".506"/>
    <stop offset="0.389" stop-color="#ffe421" stop-opacity=".454"/>
    <stop offset="0.809" stop-color="#ffe300" stop-opacity="0"/>
  </radialGradient>
  <path d="M208.4 198.6c-1.8-2.399-9.6-8.101-18.3-8.7-11.6-.8-21 4.2-21 4.2s6.4-3.7 21.2-2.399c10.2.899 18 6.599 18.1 6.899z" opacity=".5" fill="url(#N)"/>
  <radialGradient id="O" cx="-2738.967" cy="3148.419" r="56.149" gradientTransform="matrix(-.3166 .8278 .6529 .2379 -2717.338 1725.642)" gradientUnits="userSpaceOnUse">
    <stop offset="0" stop-color="#fff"/>
    <stop offset="0.027" stop-color="#fffbe8" stop-opacity=".963"/>
    <stop offset="0.102" stop-color="#fff2b6" stop-opacity=".857"/>
    <stop offset="0.174" stop-color="#ffed8c" stop-opacity=".756"/>
    <stop offset="0.24" stop-color="#ffe967" stop-opacity=".662"/>
    <stop offset="0.3" stop-color="#ffe645" stop-opacity=".578"/>
    <stop offset="0.352" stop-color="#ffe42c" stop-opacity=".506"/>
    <stop offset="0.389" stop-color="#ffe421" stop-opacity=".454"/>
    <stop offset="0.809" stop-color="#ffe300" stop-opacity="0"/>
  </radialGradient>
  <path d="M212.3 203.201c-1.8-2.5-8.4-8.301-19-10.4-13.5-2.6-23.4 3.1-23.4 3.1s7.7-3.199 23.3-.699c10.7 1.798 18.9 7.798 19.1 7.999z" opacity=".5" fill="url(#O)"/>
  <radialGradient id="P" cx="-2910.101" cy="3394.988" r="42.108" gradientTransform="matrix(-.2345 .5201 .5377 .2307 -2304.132 936.503)" gradientUnits="userSpaceOnUse">
    <stop offset="0" stop-color="#fff"/>
    <stop offset="0.027" stop-color="#fffbe8" stop-opacity=".963"/>
    <stop offset="0.102" stop-color="#fff2b6" stop-opacity=".857"/>
    <stop offset="0.174" stop-color="#ffed8c" stop-opacity=".756"/>
    <stop offset="0.24" stop-color="#ffe967" stop-opacity=".662"/>
    <stop offset="0.3" stop-color="#ffe645" stop-opacity=".578"/>
    <stop offset="0.352" stop-color="#ffe42c" stop-opacity=".506"/>
    <stop offset="0.389" stop-color="#ffe421" stop-opacity=".454"/>
    <stop offset="0.809" stop-color="#ffe300" stop-opacity="0"/>
  </radialGradient>
  <path d="M208.5 203.3c-1.5-1.4-4.9-3.801-10.801-5.5-9.5-2.7-15.899-.2-15.899-.2s3.8-.899 13.5 1c6 1.2 13.1 4.601 13.2 4.7z" opacity=".5" fill="url(#P)"/>
  <radialGradient id="R" cx="1518.345" cy="5985.437" r="111.592" gradientTransform="scale(1 -1) rotate(88.401 4045.76 2116.623)" gradientUnits="userSpaceOnUse">
    <stop offset="0" stop-color="#ed6624"/>
    <stop offset="1" stop-color="#f69622"/>
  </radialGradient>
  <path d="M154.4 321.9s-.1 0 0 0m0-.9c1 2.5 10.5 6.1 32.3 5.1 17.7-.799 27.601-7.6 27.601-7.6s-7.3 3.301-31.8 4.201c-21.201.599-27.802-1.5-28.101-1.701zm-13.4-6.901c17.699 3.9 39.699.5 39.699.5s-21.1.201-42.899-5c-23.3-5.5-29.9-12.898-29.8-12.999.4 3.999 15.3 13.601 33 17.499zm14.9-1.5c12.9 1.602 26.4-.299 26.4-.299s-13.5-.201-28.7-2.301c-15-2.1-20.7-4.5-20.7-4.699 1.5 2.799 13.6 6.1 23 7.299zm-43.8-2.5c10.5 5.201 20.7 6.602 20.7 6.602s-17.2-6.301-24.9-10.9c-7.6-4.6-13.8-8.6-14-9 1.7 2.999 8.1 8.9 18.2 13.298zm36.8 27.201" opacity=".1" fill="url(#R)"/>
  <radialGradient id="S" cx="-948.779" cy="1467.184" r="43.928" gradientTransform="matrix(.9569 .2903 .1939 -.6392 698.864 1297.31)" gradientUnits="userSpaceOnUse">
    <stop offset="0.487" stop-color="#e57c27" stop-opacity="0"/>
    <stop offset="0.853" stop-color="#f0be1b"/>
  </radialGradient>
  <path d="M100.9 67s-2.7 3.2-4.7 6.4c-2.3 3.5-4.2 7.2-4.2 7.2s-11.4-8.4-21.6-10.1-13.2-1.4-13.2-1.4 16.999-8.8 43.7-2.1z" fill="url(#S)"/>
</svg>